<svg 
          width="19.500219345092773" 
          height="19.500614166259766" fill="none" 
          xmlns="http://www.w3.org/2000/svg">
          <defs>
            <linearGradient id="eI9324521100">
        <stop offset="0%" style="stop-color:rgb(52.000000700354576,177.0000046491623,232.00000137090683);stop-opacity:1" />
        <stop offset="33.85416567325592%" style="stop-color:rgb(130.68749696016312,221.45536959171295,255);stop-opacity:1" />
        <stop offset="89.0625%" style="stop-color:rgb(239.7806614637375,128.56249898672104,255);stop-opacity:1" />
        <stop offset="100%" style="stop-color:rgb(255,157.25000202655792,166.84507995843887);stop-opacity:1" />
        </linearGradient>
          </defs>
          <path d="M 7.583333456956392 2.1667602206997656 C 6.14674409316829 2.1667602206997656 4.7689940117394265 2.737470855050991 3.753171922355712 3.7533423604979537 C 2.737349832971997 4.769213865944916 2.16666696027434 6.147031228221555 2.166666960274339 7.583690476875919 C 2.16666696027434 9.020349725530282 2.737349832971997 10.398166571208195 3.753171922355712 11.414038076655158 C 4.7689940117394265 12.429909582102121 6.14674409316829 13.000620216453347 7.583333456956392 13.000620216453347 C 9.019922820744496 13.000620216453346 10.397673160460156 12.429909582102121 11.413495249843871 11.414038076655158 C 12.429317339227586 10.398166571208195 13.000000211925242 9.020349725530282 13.000000211925244 7.583690476875919 C 13.000000211925242 6.147031228221555 12.429317339227586 4.769213865944916 11.413495249843871 3.7533423604979537 C 10.397673160460156 2.737470855050991 9.019922820744496 2.1667602206997656 7.583333456956392 2.1667602206997656 Z M 2.389635858547914e-7 7.583690476875919 C 0.0000022856135869432395 6.382497185789744 0.2853232271295534 5.198484676830452 0.8324676490434546 4.1291534688316345 C 1.3796120709573558 3.059822260832817 2.172928477980606 2.1357611329780943 3.147089552525645 1.433063979821408 C 4.121250627070684 0.7303668266647215 5.248389419045495 0.269134779074222 6.435689792643121 0.08734906328271903 C 7.622990166240747 -0.09443665250878393 8.83648869892698 0.008424078561119208 9.976256294758203 0.38746089391420996 C 11.116023890589426 0.7664977092673007 12.149456619593952 1.4108681864130932 12.991455051492363 2.267509887219956 C 13.833453483390773 3.124151588026819 14.459931760816293 4.168559877943254 14.81930009840506 5.31473049703234 C 15.178668435993828 6.460901116121425 15.260647245176948 7.676046576447239 15.058486071339088 8.860104158645367 C 14.856324897501228 10.044161740843494 14.375806297767175 11.163260455725261 13.656500164771227 12.12524470859984 L 19.182584439503735 17.650512949981046 C 19.385861832026027 17.853656568334863 19.500117765919196 18.12923468959281 19.500219345092773 18.416624727712673 C 19.50032092426635 18.704014765832536 19.386259545266537 18.979674461258046 19.18312580863284 19.182961742488796 C 18.979992071999146 19.386249023719547 18.704425289671583 19.500512576082958 18.417049231355488 19.500614166259766 C 18.129673173039393 19.500715756436573 17.85402688680675 19.386648806558554 17.650749494284458 19.18350520434845 L 12.125750024104544 13.658235929769793 C 10.998557766762499 14.501472733112275 9.658918160700342 15.014307415769107 8.256808018182529 15.139328609737586 C 6.854697875664716 15.264349803706065 5.445464054108119 14.996621957046289 4.186876265910208 14.36611669911708 C 2.9282884777122975 13.735611441187872 1.870027284510217 12.767217683346114 1.130569615515797 11.569351417204468 C 0.3911119465213767 10.37148515106282 -0.00035308571061716434 8.991431303752048 2.389635858547914e-7 7.583690476875919 L 2.389635858547914e-7 7.583690476875919 Z" fill="url(#eI9324521100)"/>
        </svg>